<?xml version="1.0" encoding="utf-8"?>
<!-- Generator: Adobe Illustrator 16.0.0, SVG Export Plug-In . SVG Version: 6.00 Build 0)  -->
<!DOCTYPE svg PUBLIC "-//W3C//DTD SVG 1.1//EN" "http://www.w3.org/Graphics/SVG/1.1/DTD/svg11.dtd">
<svg version="1.1" id="Слой_1" xmlns="http://www.w3.org/2000/svg" xmlns:xlink="http://www.w3.org/1999/xlink" x="0px" y="0px"
	 width="512px" height="512px" viewBox="0 0 512 512" enable-background="new 0 0 512 512" xml:space="preserve">
<g id="thermometer_2">
	<g>
		<path fill="#F5F7FA" d="M181.334,501.32c-35.288,0-63.998-28.719-63.998-63.997c0-16.844,6.492-32.75,18.281-44.781l3.047-3.109
			V53.334c0-23.53,19.14-42.67,42.67-42.67c23.523,0,42.663,19.14,42.663,42.67v336.098l3.047,3.109
			c11.789,12.031,18.289,27.938,18.289,44.781C245.332,472.602,216.623,501.32,181.334,501.32z"/>
		<path fill="#434A54" d="M159.109,224.001c0,5.89-4.773,10.656-10.664,10.656s-10.664-4.766-10.664-10.656
			s4.773-10.671,10.664-10.671S159.109,218.111,159.109,224.001z"/>
		<path fill="#434A54" d="M224.887,224.001c0,5.89-4.773,10.656-10.671,10.656c-5.891,0-10.664-4.766-10.664-10.656
			s4.773-10.671,10.664-10.671C220.114,213.33,224.887,218.111,224.887,224.001z"/>
		<path fill="#5585ed" d="M181.334,458.649c-11.765,0-21.335-9.562-21.335-21.326c0-11.766,9.57-21.328,21.335-21.328
			c11.758,0,21.328,9.563,21.328,21.328C202.662,449.088,193.092,458.649,181.334,458.649z"/>
		<path fill="#5585ed" d="M181.334,405.323c-17.671,0-31.999,14.328-31.999,32c0,17.67,14.327,31.997,31.999,31.997
			c17.672,0,32-14.327,32-31.997C213.333,419.651,199.006,405.323,181.334,405.323z M181.334,447.994
			c-5.882,0-10.671-4.797-10.671-10.671c0-5.891,4.789-10.672,10.671-10.672c5.875,0,10.664,4.781,10.664,10.672
			C191.998,443.197,187.209,447.994,181.334,447.994z"/>
		<g>
			<path fill="#5585ed" d="M181.334,426.651c-5.89,0-10.671-4.766-10.671-10.656V224.001c0-5.89,4.781-10.671,10.671-10.671
				c5.891,0,10.664,4.781,10.664,10.671v191.994C191.998,421.886,187.225,426.651,181.334,426.651z"/>
		</g>
		<path fill="#cdcdce" d="M234.661,385.073V53.334c0-29.452-23.874-53.327-53.327-53.327C151.875,0.008,128,23.883,128,53.334
			v331.739c-13.195,13.469-21.335,31.906-21.335,52.25c0,41.231,33.429,74.669,74.669,74.669c41.233,0,74.662-33.438,74.662-74.669
			C255.996,416.979,247.855,398.542,234.661,385.073z M181.334,490.648c-29.413,0-53.334-23.922-53.334-53.325
			c0-14.031,5.414-27.297,15.242-37.328l6.094-6.219v-8.703V53.334c0-17.64,14.351-31.999,31.999-31.999
			c17.641,0,32,14.358,32,31.999v331.739v8.703l6.094,6.219c9.827,10.031,15.233,23.297,15.233,37.328
			C234.661,466.727,210.74,490.648,181.334,490.648z"/>
	</g>
	<path fill="#A0D468" d="M351.992,181.331c-29.451,0-53.342,23.874-53.342,53.326v63.999c0,29.451,23.891,53.342,53.342,53.342
		c29.453,0,53.344-23.891,53.344-53.342v-63.999C405.336,205.205,381.445,181.331,351.992,181.331z M383.992,298.655
		c0,17.64-14.344,31.998-32,31.998c-17.654,0-31.998-14.358-31.998-31.998v-63.999c0-17.64,14.344-31.999,31.998-31.999
		c17.656,0,32,14.359,32,31.999V298.655z"/>
</g>
</svg>
