<?xml version="1.0" encoding="utf-8"?>
<!-- Generator: Adobe Illustrator 16.0.0, SVG Export Plug-In . SVG Version: 6.00 Build 0)  -->
<!DOCTYPE svg PUBLIC "-//W3C//DTD SVG 1.1//EN" "http://www.w3.org/Graphics/SVG/1.1/DTD/svg11.dtd">
<svg version="1.1" id="Слой_1" xmlns="http://www.w3.org/2000/svg" xmlns:xlink="http://www.w3.org/1999/xlink" x="0px" y="0px"
	 width="512px" height="512px" viewBox="0 0 512 512" enable-background="new 0 0 512 512" xml:space="preserve">
<g id="umbrella">
	<path fill="#434A54" d="M255.996,0.008c-5.875,0-10.656,4.781-10.656,10.672v42.67h21.328V10.68
		C266.668,4.789,261.902,0.008,255.996,0.008z"/>
	<path fill="#DA4453" d="M255.996,42.678c-141.371,0-255.992,114.606-255.992,256.008v2.313
		c18.281-23.25,46.654-38.171,78.513-38.171c38.639,0,50.811,21.952,67.419,54.076c16.593-32.124,71.436-54.076,110.059-54.076
		c38.662,0,93.473,21.952,110.098,54.076c16.594-32.124,28.75-54.076,67.404-54.076c31.842,0,60.217,14.921,78.498,38.171v-2.313
		C511.996,157.284,397.375,42.678,255.996,42.678z"/>
	<path fill="#434A54" d="M341.344,447.994c-5.904,0-10.686,4.78-10.686,10.687c0,17.624-14.344,31.999-32,31.999
		c-17.625,0-31.99-14.375-31.99-31.999V252.156H245.34v206.524c0,29.437,23.875,53.312,53.318,53.312
		c29.469,0,53.342-23.875,53.342-53.312C352,452.774,347.219,447.994,341.344,447.994z"/>
	<path fill="#ED5564" d="M255.996,262.828c38.662,0,93.473,21.952,110.098,54.045c0-162.37-67.186-241.789-92.965-273.632
		c-5.664-0.375-11.383-0.563-17.133-0.563s-11.453,0.188-17.109,0.563c-25.796,31.843-92.95,111.263-92.95,273.664
		C162.53,284.78,217.373,262.828,255.996,262.828z"/>
</g>
</svg>
